<?xml version="1.0" encoding="utf-8" standalone="no"?>
<!DOCTYPE svg PUBLIC "-//W3C//DTD SVG 1.1//EN"
  "http://www.w3.org/Graphics/SVG/1.1/DTD/svg11.dtd">
<svg xmlns:xlink="http://www.w3.org/1999/xlink" width="393.378125pt" height="266.51625pt" viewBox="0 0 393.378125 266.51625" xmlns="http://www.w3.org/2000/svg" version="1.1">
 <metadata>
  <rdf:RDF xmlns:dc="http://purl.org/dc/elements/1.1/" xmlns:cc="http://creativecommons.org/ns#" xmlns:rdf="http://www.w3.org/1999/02/22-rdf-syntax-ns#">
   <cc:Work>
    <dc:type rdf:resource="http://purl.org/dc/dcmitype/StillImage"/>
    <dc:date>2024-06-06T18:31:53.392677</dc:date>
    <dc:format>image/svg+xml</dc:format>
    <dc:creator>
     <cc:Agent>
      <dc:title>Matplotlib v3.9.0, https://matplotlib.org/</dc:title>
     </cc:Agent>
    </dc:creator>
   </cc:Work>
  </rdf:RDF>
 </metadata>
 <defs>
  <style type="text/css">*{stroke-linejoin: round; stroke-linecap: butt}</style>
 </defs>
 <g id="figure_1">
  <g id="patch_1">
   <path d="M 0 266.51625 
L 393.378125 266.51625 
L 393.378125 0 
L 0 0 
z
" style="fill: #ffffff"/>
  </g>
  <g id="axes_1">
   <g id="patch_2">
    <path d="M 51.378125 228.96 
L 386.178125 228.96 
L 386.178125 7.2 
L 51.378125 7.2 
z
" style="fill: #ffffff"/>
   </g>
   <g id="matplotlib.axis_1">
    <g id="xtick_1">
     <g id="line2d_1">
      <defs>
       <path id="mbf57eaf388" d="M 0 0 
L 0 3.5 
" style="stroke: #262626; stroke-width: 0.8"/>
      </defs>
      <g>
       <use xlink:href="#mbf57eaf388" x="65.98636" y="228.96" style="fill: #262626; stroke: #262626; stroke-width: 0.8"/>
      </g>
     </g>
     <g id="text_1">
      <!-- 0 -->
      <g style="fill: #262626" transform="translate(62.80511 243.558437) scale(0.1 -0.1)">
       <defs>
        <path id="DejaVuSans-30" d="M 2034 4250 
Q 1547 4250 1301 3770 
Q 1056 3291 1056 2328 
Q 1056 1369 1301 889 
Q 1547 409 2034 409 
Q 2525 409 2770 889 
Q 3016 1369 3016 2328 
Q 3016 3291 2770 3770 
Q 2525 4250 2034 4250 
z
M 2034 4750 
Q 2819 4750 3233 4129 
Q 3647 3509 3647 2328 
Q 3647 1150 3233 529 
Q 2819 -91 2034 -91 
Q 1250 -91 836 529 
Q 422 1150 422 2328 
Q 422 3509 836 4129 
Q 1250 4750 2034 4750 
z
" transform="scale(0.015625)"/>
       </defs>
       <use xlink:href="#DejaVuSans-30"/>
      </g>
     </g>
    </g>
    <g id="xtick_2">
     <g id="line2d_2">
      <g>
       <use xlink:href="#mbf57eaf388" x="126.981076" y="228.96" style="fill: #262626; stroke: #262626; stroke-width: 0.8"/>
      </g>
     </g>
     <g id="text_2">
      <!-- 100 -->
      <g style="fill: #262626" transform="translate(117.437326 243.558437) scale(0.1 -0.1)">
       <defs>
        <path id="DejaVuSans-31" d="M 794 531 
L 1825 531 
L 1825 4091 
L 703 3866 
L 703 4441 
L 1819 4666 
L 2450 4666 
L 2450 531 
L 3481 531 
L 3481 0 
L 794 0 
L 794 531 
z
" transform="scale(0.015625)"/>
       </defs>
       <use xlink:href="#DejaVuSans-31"/>
       <use xlink:href="#DejaVuSans-30" x="63.623047"/>
       <use xlink:href="#DejaVuSans-30" x="127.246094"/>
      </g>
     </g>
    </g>
    <g id="xtick_3">
     <g id="line2d_3">
      <g>
       <use xlink:href="#mbf57eaf388" x="187.975793" y="228.96" style="fill: #262626; stroke: #262626; stroke-width: 0.8"/>
      </g>
     </g>
     <g id="text_3">
      <!-- 200 -->
      <g style="fill: #262626" transform="translate(178.432043 243.558437) scale(0.1 -0.1)">
       <defs>
        <path id="DejaVuSans-32" d="M 1228 531 
L 3431 531 
L 3431 0 
L 469 0 
L 469 531 
Q 828 903 1448 1529 
Q 2069 2156 2228 2338 
Q 2531 2678 2651 2914 
Q 2772 3150 2772 3378 
Q 2772 3750 2511 3984 
Q 2250 4219 1831 4219 
Q 1534 4219 1204 4116 
Q 875 4013 500 3803 
L 500 4441 
Q 881 4594 1212 4672 
Q 1544 4750 1819 4750 
Q 2544 4750 2975 4387 
Q 3406 4025 3406 3419 
Q 3406 3131 3298 2873 
Q 3191 2616 2906 2266 
Q 2828 2175 2409 1742 
Q 1991 1309 1228 531 
z
" transform="scale(0.015625)"/>
       </defs>
       <use xlink:href="#DejaVuSans-32"/>
       <use xlink:href="#DejaVuSans-30" x="63.623047"/>
       <use xlink:href="#DejaVuSans-30" x="127.246094"/>
      </g>
     </g>
    </g>
    <g id="xtick_4">
     <g id="line2d_4">
      <g>
       <use xlink:href="#mbf57eaf388" x="248.97051" y="228.96" style="fill: #262626; stroke: #262626; stroke-width: 0.8"/>
      </g>
     </g>
     <g id="text_4">
      <!-- 300 -->
      <g style="fill: #262626" transform="translate(239.42676 243.558437) scale(0.1 -0.1)">
       <defs>
        <path id="DejaVuSans-33" d="M 2597 2516 
Q 3050 2419 3304 2112 
Q 3559 1806 3559 1356 
Q 3559 666 3084 287 
Q 2609 -91 1734 -91 
Q 1441 -91 1130 -33 
Q 819 25 488 141 
L 488 750 
Q 750 597 1062 519 
Q 1375 441 1716 441 
Q 2309 441 2620 675 
Q 2931 909 2931 1356 
Q 2931 1769 2642 2001 
Q 2353 2234 1838 2234 
L 1294 2234 
L 1294 2753 
L 1863 2753 
Q 2328 2753 2575 2939 
Q 2822 3125 2822 3475 
Q 2822 3834 2567 4026 
Q 2313 4219 1838 4219 
Q 1578 4219 1281 4162 
Q 984 4106 628 3988 
L 628 4550 
Q 988 4650 1302 4700 
Q 1616 4750 1894 4750 
Q 2613 4750 3031 4423 
Q 3450 4097 3450 3541 
Q 3450 3153 3228 2886 
Q 3006 2619 2597 2516 
z
" transform="scale(0.015625)"/>
       </defs>
       <use xlink:href="#DejaVuSans-33"/>
       <use xlink:href="#DejaVuSans-30" x="63.623047"/>
       <use xlink:href="#DejaVuSans-30" x="127.246094"/>
      </g>
     </g>
    </g>
    <g id="xtick_5">
     <g id="line2d_5">
      <g>
       <use xlink:href="#mbf57eaf388" x="309.965226" y="228.96" style="fill: #262626; stroke: #262626; stroke-width: 0.8"/>
      </g>
     </g>
     <g id="text_5">
      <!-- 400 -->
      <g style="fill: #262626" transform="translate(300.421476 243.558437) scale(0.1 -0.1)">
       <defs>
        <path id="DejaVuSans-34" d="M 2419 4116 
L 825 1625 
L 2419 1625 
L 2419 4116 
z
M 2253 4666 
L 3047 4666 
L 3047 1625 
L 3713 1625 
L 3713 1100 
L 3047 1100 
L 3047 0 
L 2419 0 
L 2419 1100 
L 313 1100 
L 313 1709 
L 2253 4666 
z
" transform="scale(0.015625)"/>
       </defs>
       <use xlink:href="#DejaVuSans-34"/>
       <use xlink:href="#DejaVuSans-30" x="63.623047"/>
       <use xlink:href="#DejaVuSans-30" x="127.246094"/>
      </g>
     </g>
    </g>
    <g id="xtick_6">
     <g id="line2d_6">
      <g>
       <use xlink:href="#mbf57eaf388" x="370.959943" y="228.96" style="fill: #262626; stroke: #262626; stroke-width: 0.8"/>
      </g>
     </g>
     <g id="text_6">
      <!-- 500 -->
      <g style="fill: #262626" transform="translate(361.416193 243.558437) scale(0.1 -0.1)">
       <defs>
        <path id="DejaVuSans-35" d="M 691 4666 
L 3169 4666 
L 3169 4134 
L 1269 4134 
L 1269 2991 
Q 1406 3038 1543 3061 
Q 1681 3084 1819 3084 
Q 2600 3084 3056 2656 
Q 3513 2228 3513 1497 
Q 3513 744 3044 326 
Q 2575 -91 1722 -91 
Q 1428 -91 1123 -41 
Q 819 9 494 109 
L 494 744 
Q 775 591 1075 516 
Q 1375 441 1709 441 
Q 2250 441 2565 725 
Q 2881 1009 2881 1497 
Q 2881 1984 2565 2268 
Q 2250 2553 1709 2553 
Q 1456 2553 1204 2497 
Q 953 2441 691 2322 
L 691 4666 
z
" transform="scale(0.015625)"/>
       </defs>
       <use xlink:href="#DejaVuSans-35"/>
       <use xlink:href="#DejaVuSans-30" x="63.623047"/>
       <use xlink:href="#DejaVuSans-30" x="127.246094"/>
      </g>
     </g>
    </g>
    <g id="text_7">
     <!-- Epoch -->
     <g style="fill: #262626" transform="translate(203.467188 257.236562) scale(0.1 -0.1)">
      <defs>
       <path id="DejaVuSans-45" d="M 628 4666 
L 3578 4666 
L 3578 4134 
L 1259 4134 
L 1259 2753 
L 3481 2753 
L 3481 2222 
L 1259 2222 
L 1259 531 
L 3634 531 
L 3634 0 
L 628 0 
L 628 4666 
z
" transform="scale(0.015625)"/>
       <path id="DejaVuSans-70" d="M 1159 525 
L 1159 -1331 
L 581 -1331 
L 581 3500 
L 1159 3500 
L 1159 2969 
Q 1341 3281 1617 3432 
Q 1894 3584 2278 3584 
Q 2916 3584 3314 3078 
Q 3713 2572 3713 1747 
Q 3713 922 3314 415 
Q 2916 -91 2278 -91 
Q 1894 -91 1617 61 
Q 1341 213 1159 525 
z
M 3116 1747 
Q 3116 2381 2855 2742 
Q 2594 3103 2138 3103 
Q 1681 3103 1420 2742 
Q 1159 2381 1159 1747 
Q 1159 1113 1420 752 
Q 1681 391 2138 391 
Q 2594 391 2855 752 
Q 3116 1113 3116 1747 
z
" transform="scale(0.015625)"/>
       <path id="DejaVuSans-6f" d="M 1959 3097 
Q 1497 3097 1228 2736 
Q 959 2375 959 1747 
Q 959 1119 1226 758 
Q 1494 397 1959 397 
Q 2419 397 2687 759 
Q 2956 1122 2956 1747 
Q 2956 2369 2687 2733 
Q 2419 3097 1959 3097 
z
M 1959 3584 
Q 2709 3584 3137 3096 
Q 3566 2609 3566 1747 
Q 3566 888 3137 398 
Q 2709 -91 1959 -91 
Q 1206 -91 779 398 
Q 353 888 353 1747 
Q 353 2609 779 3096 
Q 1206 3584 1959 3584 
z
" transform="scale(0.015625)"/>
       <path id="DejaVuSans-63" d="M 3122 3366 
L 3122 2828 
Q 2878 2963 2633 3030 
Q 2388 3097 2138 3097 
Q 1578 3097 1268 2742 
Q 959 2388 959 1747 
Q 959 1106 1268 751 
Q 1578 397 2138 397 
Q 2388 397 2633 464 
Q 2878 531 3122 666 
L 3122 134 
Q 2881 22 2623 -34 
Q 2366 -91 2075 -91 
Q 1284 -91 818 406 
Q 353 903 353 1747 
Q 353 2603 823 3093 
Q 1294 3584 2113 3584 
Q 2378 3584 2631 3529 
Q 2884 3475 3122 3366 
z
" transform="scale(0.015625)"/>
       <path id="DejaVuSans-68" d="M 3513 2113 
L 3513 0 
L 2938 0 
L 2938 2094 
Q 2938 2591 2744 2837 
Q 2550 3084 2163 3084 
Q 1697 3084 1428 2787 
Q 1159 2491 1159 1978 
L 1159 0 
L 581 0 
L 581 4863 
L 1159 4863 
L 1159 2956 
Q 1366 3272 1645 3428 
Q 1925 3584 2291 3584 
Q 2894 3584 3203 3211 
Q 3513 2838 3513 2113 
z
" transform="scale(0.015625)"/>
      </defs>
      <use xlink:href="#DejaVuSans-45"/>
      <use xlink:href="#DejaVuSans-70" x="63.183594"/>
      <use xlink:href="#DejaVuSans-6f" x="126.660156"/>
      <use xlink:href="#DejaVuSans-63" x="187.841797"/>
      <use xlink:href="#DejaVuSans-68" x="242.822266"/>
     </g>
    </g>
   </g>
   <g id="matplotlib.axis_2">
    <g id="ytick_1">
     <g id="line2d_7">
      <defs>
       <path id="mc027f5c96f" d="M 0 0 
L -3.5 0 
" style="stroke: #262626; stroke-width: 0.8"/>
      </defs>
      <g>
       <use xlink:href="#mc027f5c96f" x="51.378125" y="218.415479" style="fill: #262626; stroke: #262626; stroke-width: 0.8"/>
      </g>
     </g>
     <g id="text_8">
      <!-- $\mathdefault{10^{-1}}$ -->
      <g style="fill: #262626" transform="translate(20.878125 222.214698) scale(0.1 -0.1)">
       <defs>
        <path id="DejaVuSans-2212" d="M 678 2272 
L 4684 2272 
L 4684 1741 
L 678 1741 
L 678 2272 
z
" transform="scale(0.015625)"/>
       </defs>
       <use xlink:href="#DejaVuSans-31" transform="translate(0 0.684375)"/>
       <use xlink:href="#DejaVuSans-30" transform="translate(63.623047 0.684375)"/>
       <use xlink:href="#DejaVuSans-2212" transform="translate(128.203125 38.965625) scale(0.7)"/>
       <use xlink:href="#DejaVuSans-31" transform="translate(186.855469 38.965625) scale(0.7)"/>
      </g>
     </g>
    </g>
    <g id="ytick_2">
     <g id="line2d_8">
      <g>
       <use xlink:href="#mc027f5c96f" x="51.378125" y="132.680415" style="fill: #262626; stroke: #262626; stroke-width: 0.8"/>
      </g>
     </g>
     <g id="text_9">
      <!-- $\mathdefault{10^{0}}$ -->
      <g style="fill: #262626" transform="translate(26.778125 136.479634) scale(0.1 -0.1)">
       <use xlink:href="#DejaVuSans-31" transform="translate(0 0.765625)"/>
       <use xlink:href="#DejaVuSans-30" transform="translate(63.623047 0.765625)"/>
       <use xlink:href="#DejaVuSans-30" transform="translate(128.203125 39.046875) scale(0.7)"/>
      </g>
     </g>
    </g>
    <g id="ytick_3">
     <g id="line2d_9">
      <g>
       <use xlink:href="#mc027f5c96f" x="51.378125" y="46.945351" style="fill: #262626; stroke: #262626; stroke-width: 0.8"/>
      </g>
     </g>
     <g id="text_10">
      <!-- $\mathdefault{10^{1}}$ -->
      <g style="fill: #262626" transform="translate(26.778125 50.74457) scale(0.1 -0.1)">
       <use xlink:href="#DejaVuSans-31" transform="translate(0 0.684375)"/>
       <use xlink:href="#DejaVuSans-30" transform="translate(63.623047 0.684375)"/>
       <use xlink:href="#DejaVuSans-31" transform="translate(128.203125 38.965625) scale(0.7)"/>
      </g>
     </g>
    </g>
    <g id="ytick_4">
     <g id="line2d_10">
      <defs>
       <path id="mc7630020b9" d="M 0 0 
L -2 0 
" style="stroke: #262626; stroke-width: 0.6"/>
      </defs>
      <g>
       <use xlink:href="#mc7630020b9" x="51.378125" y="226.724065" style="fill: #262626; stroke: #262626; stroke-width: 0.6"/>
      </g>
     </g>
    </g>
    <g id="ytick_5">
     <g id="line2d_11">
      <g>
       <use xlink:href="#mc7630020b9" x="51.378125" y="222.3385" style="fill: #262626; stroke: #262626; stroke-width: 0.6"/>
      </g>
     </g>
    </g>
    <g id="ytick_6">
     <g id="line2d_12">
      <g>
       <use xlink:href="#mc7630020b9" x="51.378125" y="192.606653" style="fill: #262626; stroke: #262626; stroke-width: 0.6"/>
      </g>
     </g>
    </g>
    <g id="ytick_7">
     <g id="line2d_13">
      <g>
       <use xlink:href="#mc7630020b9" x="51.378125" y="177.509458" style="fill: #262626; stroke: #262626; stroke-width: 0.6"/>
      </g>
     </g>
    </g>
    <g id="ytick_8">
     <g id="line2d_14">
      <g>
       <use xlink:href="#mc7630020b9" x="51.378125" y="166.797827" style="fill: #262626; stroke: #262626; stroke-width: 0.6"/>
      </g>
     </g>
    </g>
    <g id="ytick_9">
     <g id="line2d_15">
      <g>
       <use xlink:href="#mc7630020b9" x="51.378125" y="158.489241" style="fill: #262626; stroke: #262626; stroke-width: 0.6"/>
      </g>
     </g>
    </g>
    <g id="ytick_10">
     <g id="line2d_16">
      <g>
       <use xlink:href="#mc7630020b9" x="51.378125" y="151.700632" style="fill: #262626; stroke: #262626; stroke-width: 0.6"/>
      </g>
     </g>
    </g>
    <g id="ytick_11">
     <g id="line2d_17">
      <g>
       <use xlink:href="#mc7630020b9" x="51.378125" y="145.960944" style="fill: #262626; stroke: #262626; stroke-width: 0.6"/>
      </g>
     </g>
    </g>
    <g id="ytick_12">
     <g id="line2d_18">
      <g>
       <use xlink:href="#mc7630020b9" x="51.378125" y="140.989001" style="fill: #262626; stroke: #262626; stroke-width: 0.6"/>
      </g>
     </g>
    </g>
    <g id="ytick_13">
     <g id="line2d_19">
      <g>
       <use xlink:href="#mc7630020b9" x="51.378125" y="136.603436" style="fill: #262626; stroke: #262626; stroke-width: 0.6"/>
      </g>
     </g>
    </g>
    <g id="ytick_14">
     <g id="line2d_20">
      <g>
       <use xlink:href="#mc7630020b9" x="51.378125" y="106.871589" style="fill: #262626; stroke: #262626; stroke-width: 0.6"/>
      </g>
     </g>
    </g>
    <g id="ytick_15">
     <g id="line2d_21">
      <g>
       <use xlink:href="#mc7630020b9" x="51.378125" y="91.774394" style="fill: #262626; stroke: #262626; stroke-width: 0.6"/>
      </g>
     </g>
    </g>
    <g id="ytick_16">
     <g id="line2d_22">
      <g>
       <use xlink:href="#mc7630020b9" x="51.378125" y="81.062763" style="fill: #262626; stroke: #262626; stroke-width: 0.6"/>
      </g>
     </g>
    </g>
    <g id="ytick_17">
     <g id="line2d_23">
      <g>
       <use xlink:href="#mc7630020b9" x="51.378125" y="72.754177" style="fill: #262626; stroke: #262626; stroke-width: 0.6"/>
      </g>
     </g>
    </g>
    <g id="ytick_18">
     <g id="line2d_24">
      <g>
       <use xlink:href="#mc7630020b9" x="51.378125" y="65.965568" style="fill: #262626; stroke: #262626; stroke-width: 0.6"/>
      </g>
     </g>
    </g>
    <g id="ytick_19">
     <g id="line2d_25">
      <g>
       <use xlink:href="#mc7630020b9" x="51.378125" y="60.22588" style="fill: #262626; stroke: #262626; stroke-width: 0.6"/>
      </g>
     </g>
    </g>
    <g id="ytick_20">
     <g id="line2d_26">
      <g>
       <use xlink:href="#mc7630020b9" x="51.378125" y="55.253937" style="fill: #262626; stroke: #262626; stroke-width: 0.6"/>
      </g>
     </g>
    </g>
    <g id="ytick_21">
     <g id="line2d_27">
      <g>
       <use xlink:href="#mc7630020b9" x="51.378125" y="50.868372" style="fill: #262626; stroke: #262626; stroke-width: 0.6"/>
      </g>
     </g>
    </g>
    <g id="ytick_22">
     <g id="line2d_28">
      <g>
       <use xlink:href="#mc7630020b9" x="51.378125" y="21.136525" style="fill: #262626; stroke: #262626; stroke-width: 0.6"/>
      </g>
     </g>
    </g>
    <g id="text_11">
     <!-- Training Loss -->
     <g style="fill: #262626" transform="translate(14.798438 150.362031) rotate(-90) scale(0.1 -0.1)">
      <defs>
       <path id="DejaVuSans-54" d="M -19 4666 
L 3928 4666 
L 3928 4134 
L 2272 4134 
L 2272 0 
L 1638 0 
L 1638 4134 
L -19 4134 
L -19 4666 
z
" transform="scale(0.015625)"/>
       <path id="DejaVuSans-72" d="M 2631 2963 
Q 2534 3019 2420 3045 
Q 2306 3072 2169 3072 
Q 1681 3072 1420 2755 
Q 1159 2438 1159 1844 
L 1159 0 
L 581 0 
L 581 3500 
L 1159 3500 
L 1159 2956 
Q 1341 3275 1631 3429 
Q 1922 3584 2338 3584 
Q 2397 3584 2469 3576 
Q 2541 3569 2628 3553 
L 2631 2963 
z
" transform="scale(0.015625)"/>
       <path id="DejaVuSans-61" d="M 2194 1759 
Q 1497 1759 1228 1600 
Q 959 1441 959 1056 
Q 959 750 1161 570 
Q 1363 391 1709 391 
Q 2188 391 2477 730 
Q 2766 1069 2766 1631 
L 2766 1759 
L 2194 1759 
z
M 3341 1997 
L 3341 0 
L 2766 0 
L 2766 531 
Q 2569 213 2275 61 
Q 1981 -91 1556 -91 
Q 1019 -91 701 211 
Q 384 513 384 1019 
Q 384 1609 779 1909 
Q 1175 2209 1959 2209 
L 2766 2209 
L 2766 2266 
Q 2766 2663 2505 2880 
Q 2244 3097 1772 3097 
Q 1472 3097 1187 3025 
Q 903 2953 641 2809 
L 641 3341 
Q 956 3463 1253 3523 
Q 1550 3584 1831 3584 
Q 2591 3584 2966 3190 
Q 3341 2797 3341 1997 
z
" transform="scale(0.015625)"/>
       <path id="DejaVuSans-69" d="M 603 3500 
L 1178 3500 
L 1178 0 
L 603 0 
L 603 3500 
z
M 603 4863 
L 1178 4863 
L 1178 4134 
L 603 4134 
L 603 4863 
z
" transform="scale(0.015625)"/>
       <path id="DejaVuSans-6e" d="M 3513 2113 
L 3513 0 
L 2938 0 
L 2938 2094 
Q 2938 2591 2744 2837 
Q 2550 3084 2163 3084 
Q 1697 3084 1428 2787 
Q 1159 2491 1159 1978 
L 1159 0 
L 581 0 
L 581 3500 
L 1159 3500 
L 1159 2956 
Q 1366 3272 1645 3428 
Q 1925 3584 2291 3584 
Q 2894 3584 3203 3211 
Q 3513 2838 3513 2113 
z
" transform="scale(0.015625)"/>
       <path id="DejaVuSans-67" d="M 2906 1791 
Q 2906 2416 2648 2759 
Q 2391 3103 1925 3103 
Q 1463 3103 1205 2759 
Q 947 2416 947 1791 
Q 947 1169 1205 825 
Q 1463 481 1925 481 
Q 2391 481 2648 825 
Q 2906 1169 2906 1791 
z
M 3481 434 
Q 3481 -459 3084 -895 
Q 2688 -1331 1869 -1331 
Q 1566 -1331 1297 -1286 
Q 1028 -1241 775 -1147 
L 775 -588 
Q 1028 -725 1275 -790 
Q 1522 -856 1778 -856 
Q 2344 -856 2625 -561 
Q 2906 -266 2906 331 
L 2906 616 
Q 2728 306 2450 153 
Q 2172 0 1784 0 
Q 1141 0 747 490 
Q 353 981 353 1791 
Q 353 2603 747 3093 
Q 1141 3584 1784 3584 
Q 2172 3584 2450 3431 
Q 2728 3278 2906 2969 
L 2906 3500 
L 3481 3500 
L 3481 434 
z
" transform="scale(0.015625)"/>
       <path id="DejaVuSans-20" transform="scale(0.015625)"/>
       <path id="DejaVuSans-4c" d="M 628 4666 
L 1259 4666 
L 1259 531 
L 3531 531 
L 3531 0 
L 628 0 
L 628 4666 
z
" transform="scale(0.015625)"/>
       <path id="DejaVuSans-73" d="M 2834 3397 
L 2834 2853 
Q 2591 2978 2328 3040 
Q 2066 3103 1784 3103 
Q 1356 3103 1142 2972 
Q 928 2841 928 2578 
Q 928 2378 1081 2264 
Q 1234 2150 1697 2047 
L 1894 2003 
Q 2506 1872 2764 1633 
Q 3022 1394 3022 966 
Q 3022 478 2636 193 
Q 2250 -91 1575 -91 
Q 1294 -91 989 -36 
Q 684 19 347 128 
L 347 722 
Q 666 556 975 473 
Q 1284 391 1588 391 
Q 1994 391 2212 530 
Q 2431 669 2431 922 
Q 2431 1156 2273 1281 
Q 2116 1406 1581 1522 
L 1381 1569 
Q 847 1681 609 1914 
Q 372 2147 372 2553 
Q 372 3047 722 3315 
Q 1072 3584 1716 3584 
Q 2034 3584 2315 3537 
Q 2597 3491 2834 3397 
z
" transform="scale(0.015625)"/>
      </defs>
      <use xlink:href="#DejaVuSans-54"/>
      <use xlink:href="#DejaVuSans-72" x="46.333984"/>
      <use xlink:href="#DejaVuSans-61" x="87.447266"/>
      <use xlink:href="#DejaVuSans-69" x="148.726562"/>
      <use xlink:href="#DejaVuSans-6e" x="176.509766"/>
      <use xlink:href="#DejaVuSans-69" x="239.888672"/>
      <use xlink:href="#DejaVuSans-6e" x="267.671875"/>
      <use xlink:href="#DejaVuSans-67" x="331.050781"/>
      <use xlink:href="#DejaVuSans-20" x="394.527344"/>
      <use xlink:href="#DejaVuSans-4c" x="426.314453"/>
      <use xlink:href="#DejaVuSans-6f" x="480.277344"/>
      <use xlink:href="#DejaVuSans-73" x="541.458984"/>
      <use xlink:href="#DejaVuSans-73" x="593.558594"/>
     </g>
    </g>
   </g>
   <g id="PolyCollection_1"/>
   <g id="line2d_29">
    <path d="M 66.596307 17.28 
L 67.206254 54.049057 
L 67.816201 64.93204 
L 68.426148 71.043169 
L 69.646043 80.415141 
L 70.865937 85.986901 
L 71.475884 87.868133 
L 72.085831 91.393801 
L 72.695778 91.533345 
L 73.305726 96.849877 
L 73.915673 97.003193 
L 75.135567 101.77225 
L 76.355461 100.49085 
L 76.965409 104.708851 
L 77.575356 106.779679 
L 78.185303 107.65626 
L 78.79525 106.955395 
L 79.405197 110.738758 
L 80.015144 112.372893 
L 80.625092 111.685385 
L 81.235039 112.444702 
L 81.844986 114.7682 
L 82.454933 114.216141 
L 83.06488 112.792078 
L 83.674827 116.14157 
L 84.284775 114.94237 
L 84.894722 116.966392 
L 85.504669 118.229187 
L 86.114616 117.713742 
L 86.724563 117.909824 
L 87.33451 119.546921 
L 87.944458 121.723845 
L 88.554405 120.967168 
L 89.164352 122.419907 
L 90.384246 121.293361 
L 90.994194 123.210568 
L 91.604141 123.418677 
L 92.214088 124.196217 
L 92.824035 122.606305 
L 93.433982 125.431135 
L 94.043929 125.463647 
L 94.653877 126.495423 
L 95.263824 125.453329 
L 95.873771 126.668767 
L 96.483718 128.51578 
L 97.093665 127.413084 
L 98.31356 128.568381 
L 98.923507 128.967815 
L 99.533454 129.588218 
L 100.143401 129.984061 
L 100.753348 130.119726 
L 101.363295 131.262969 
L 101.973243 130.681696 
L 102.58319 132.481433 
L 103.193137 130.510774 
L 103.803084 132.321616 
L 104.413031 132.513338 
L 105.022978 132.00877 
L 105.632926 132.97816 
L 106.242873 133.255239 
L 106.85282 133.025495 
L 107.462767 133.363126 
L 108.072714 133.113105 
L 108.682661 135.189551 
L 109.292609 135.186697 
L 109.902556 136.530232 
L 110.512503 135.390068 
L 111.12245 136.274248 
L 111.732397 136.651855 
L 112.342344 136.506179 
L 112.952292 136.876628 
L 113.562239 136.666035 
L 114.172186 137.234869 
L 114.782133 136.125723 
L 115.39208 137.925007 
L 116.002027 137.010971 
L 116.611975 137.645685 
L 117.221922 138.67612 
L 117.831869 138.3798 
L 118.441816 138.672186 
L 119.051763 139.19211 
L 119.66171 137.570863 
L 120.271658 138.829796 
L 120.881605 140.575137 
L 121.491552 139.275944 
L 122.101499 140.400625 
L 122.711446 141.866815 
L 123.321393 140.913156 
L 123.931341 141.068882 
L 125.761182 142.797934 
L 126.371129 141.361524 
L 126.981076 140.656009 
L 127.591024 141.327353 
L 128.200971 141.512114 
L 128.810918 142.387452 
L 129.420865 142.810797 
L 130.030812 143.522301 
L 130.640759 143.895893 
L 131.250707 142.353356 
L 131.860654 142.982504 
L 132.470601 143.086722 
L 133.080548 144.354295 
L 133.690495 143.495961 
L 134.300442 145.289239 
L 134.91039 144.537805 
L 135.520337 145.799544 
L 136.130284 144.866035 
L 136.740231 145.554749 
L 137.350178 143.904954 
L 137.960125 145.401704 
L 138.570073 145.79727 
L 139.18002 145.459997 
L 139.789967 145.285897 
L 140.399914 146.574712 
L 141.619808 146.242515 
L 142.229756 147.085843 
L 142.839703 145.753594 
L 144.059597 146.148077 
L 144.669544 166.199976 
L 145.279491 166.562527 
L 145.889439 167.314216 
L 146.499386 167.81719 
L 147.109333 167.783187 
L 148.329227 167.48617 
L 148.939174 167.521695 
L 149.549122 168.607136 
L 150.769016 168.193534 
L 151.378963 168.486503 
L 151.98891 168.196236 
L 152.598857 168.86459 
L 153.818752 169.312419 
L 154.428699 169.185204 
L 155.038646 169.738511 
L 155.648593 169.140364 
L 156.25854 168.384516 
L 156.868488 168.821597 
L 157.478435 169.969066 
L 158.088382 168.792662 
L 158.698329 169.13329 
L 159.308276 170.225695 
L 159.918223 170.225544 
L 160.528171 170.098424 
L 161.138118 170.770786 
L 161.748065 169.58862 
L 162.358012 170.219302 
L 162.967959 169.297573 
L 163.577906 170.177799 
L 164.187854 169.672034 
L 164.797801 170.609165 
L 165.407748 170.439525 
L 166.017695 170.938249 
L 166.627642 169.757835 
L 167.237589 169.737312 
L 167.847537 170.581418 
L 169.067431 170.752083 
L 169.677378 171.06935 
L 170.287325 171.125925 
L 170.897272 170.805664 
L 171.50722 170.325667 
L 172.117167 171.241782 
L 172.727114 171.085558 
L 173.337061 170.698154 
L 173.947008 171.110136 
L 174.556955 171.355624 
L 175.166903 171.169857 
L 175.77685 171.635705 
L 176.386797 170.589431 
L 176.996744 171.954889 
L 177.606691 171.614984 
L 178.216638 171.109181 
L 178.826586 171.703846 
L 179.436533 172.130477 
L 180.04648 171.883644 
L 180.656427 171.939577 
L 181.266374 171.438653 
L 181.876321 171.711365 
L 182.486269 171.773792 
L 183.096216 172.908813 
L 184.31611 171.797697 
L 184.926057 172.040745 
L 185.536004 171.937085 
L 186.145952 172.368419 
L 186.755899 172.470724 
L 187.365846 171.659926 
L 187.975793 172.139276 
L 188.58574 172.432688 
L 189.195687 172.21632 
L 189.805635 171.688305 
L 190.415582 174.137053 
L 191.025529 172.665044 
L 191.635476 172.720787 
L 192.245423 172.518744 
L 194.075265 173.192383 
L 194.685212 173.079545 
L 195.905106 172.146706 
L 196.515053 173.158902 
L 197.125001 172.666132 
L 197.734948 173.072848 
L 198.344895 173.789674 
L 198.954842 172.714214 
L 199.564789 172.954112 
L 200.174736 172.900902 
L 200.784684 173.3545 
L 201.394631 173.417943 
L 202.004578 172.860899 
L 202.614525 173.522961 
L 203.224472 173.705653 
L 203.834419 172.732699 
L 204.444367 174.114485 
L 205.054314 173.106128 
L 205.664261 173.611772 
L 206.274208 173.631627 
L 206.884155 172.992037 
L 207.494102 173.595233 
L 208.10405 173.420304 
L 208.713997 174.733333 
L 209.323944 174.736114 
L 209.933891 173.617792 
L 211.153785 174.461095 
L 211.763733 173.692796 
L 212.983627 174.519566 
L 213.593574 173.679185 
L 214.203521 174.409456 
L 214.813468 173.915776 
L 216.033363 174.388085 
L 216.64331 188.967741 
L 217.253257 190.19573 
L 217.863204 189.933934 
L 218.473151 191.007543 
L 219.083099 190.690358 
L 219.693046 190.894428 
L 220.302993 190.902052 
L 220.91294 190.683332 
L 221.522887 191.101315 
L 222.132834 190.518114 
L 223.352729 191.252164 
L 223.962676 191.402009 
L 224.572623 191.321977 
L 225.792517 191.451932 
L 226.402465 191.106439 
L 227.012412 191.473471 
L 227.622359 191.379611 
L 228.842253 191.978184 
L 229.4522 191.885367 
L 230.062148 191.517293 
L 230.672095 191.473676 
L 231.891989 191.61136 
L 232.501936 192.32727 
L 233.111883 191.898179 
L 233.721831 192.125327 
L 234.331778 191.888656 
L 234.941725 192.108442 
L 235.551672 191.658799 
L 236.161619 191.891079 
L 236.771566 192.867847 
L 237.381514 201.748128 
L 237.991461 202.133973 
L 239.211355 202.560597 
L 239.821302 202.546512 
L 240.431249 202.679683 
L 241.041197 202.588347 
L 241.651144 202.773563 
L 242.871038 202.824204 
L 248.97051 203.456107 
L 249.580457 203.421758 
L 250.190404 203.524705 
L 251.410298 203.558653 
L 252.020246 203.646307 
L 252.630193 203.51893 
L 253.24014 203.808369 
L 253.850087 203.747203 
L 254.460034 203.806432 
L 255.069981 203.720035 
L 256.899823 203.983482 
L 258.119717 203.90874 
L 258.729664 204.084464 
L 259.949559 204.08215 
L 260.559506 204.268107 
L 261.169453 204.075045 
L 261.7794 204.270062 
L 262.999295 204.434846 
L 263.609242 204.258219 
L 264.829136 204.396945 
L 267.268925 204.490562 
L 267.878872 204.408179 
L 268.488819 204.560429 
L 269.098766 204.933609 
L 269.708713 204.745231 
L 271.538555 204.80204 
L 272.148502 204.731811 
L 272.758449 204.878716 
L 273.368396 204.650832 
L 273.978344 204.910778 
L 275.808185 204.988977 
L 276.418132 205.261266 
L 277.028079 204.76389 
L 277.638027 205.161221 
L 278.247974 205.151603 
L 279.467868 205.308397 
L 280.077815 205.146034 
L 280.687762 205.398144 
L 281.29771 205.51778 
L 281.907657 205.289677 
L 282.517604 205.405339 
L 284.347445 205.455699 
L 284.957393 205.545957 
L 285.56734 205.357529 
L 286.177287 205.508051 
L 286.787234 205.324191 
L 287.397181 205.726758 
L 288.007128 205.673269 
L 288.617076 205.475701 
L 289.227023 205.601646 
L 289.83697 205.443089 
L 290.446917 205.850597 
L 291.666811 205.717747 
L 292.276759 206.044293 
L 293.496653 205.79606 
L 294.1066 205.759488 
L 295.936442 205.948097 
L 296.546389 205.908331 
L 297.156336 206.003755 
L 297.766283 205.883555 
L 298.986177 205.921252 
L 299.596125 206.232865 
L 300.206072 206.028959 
L 300.816019 206.248202 
L 301.425966 205.973289 
L 302.035913 206.210041 
L 302.64586 206.290882 
L 303.255808 206.174238 
L 303.865755 206.253495 
L 304.475702 206.177549 
L 305.085649 206.431286 
L 305.695596 206.447533 
L 306.305543 206.312376 
L 306.915491 206.403462 
L 308.135385 206.312068 
L 308.745332 206.638863 
L 309.355279 206.704182 
L 309.965226 206.526497 
L 310.575174 206.676345 
L 311.185121 206.572421 
L 311.795068 206.856522 
L 312.405015 206.562176 
L 313.624909 206.638418 
L 314.234857 206.597575 
L 314.844804 206.838466 
L 315.454751 206.61982 
L 316.064698 206.797957 
L 316.674645 206.57174 
L 317.284592 206.831657 
L 320.944275 207.091931 
L 321.554223 213.056469 
L 322.16417 213.368939 
L 323.384064 213.598634 
L 323.994011 213.673337 
L 324.603958 213.620317 
L 326.4338 213.895288 
L 327.043747 213.757989 
L 327.653694 213.948576 
L 329.483536 213.927814 
L 332.533272 214.142364 
L 333.143219 214.105858 
L 333.753166 214.207064 
L 334.363113 214.078744 
L 335.583007 214.219815 
L 336.192955 214.288064 
L 337.412849 214.279126 
L 338.022796 214.389274 
L 338.632743 214.276407 
L 339.24269 214.443079 
L 339.852638 214.439331 
L 340.462585 214.283568 
L 341.072532 214.522654 
L 341.682479 214.547798 
L 342.292426 214.364137 
L 342.902373 214.547742 
L 343.512321 214.417213 
L 344.732215 214.627653 
L 345.342162 214.567428 
L 347.781951 214.686718 
L 349.001845 214.731817 
L 349.611792 214.855932 
L 350.22174 214.645528 
L 350.831687 214.798538 
L 351.441634 214.758157 
L 352.051581 214.873012 
L 352.661528 214.801416 
L 353.881423 214.905344 
L 356.321211 214.918659 
L 356.931158 215.040212 
L 357.541106 214.926744 
L 358.151053 215.097416 
L 361.810736 215.135004 
L 364.250524 215.247459 
L 364.860472 218.36245 
L 365.470419 218.574534 
L 366.690313 218.694786 
L 370.959943 218.88 
L 370.959943 218.88 
" clip-path="url(#pde327b05cd)" style="fill: none; stroke: #1f77b4; stroke-width: 1.5; stroke-linecap: round"/>
   </g>
   <g id="patch_3">
    <path d="M 51.378125 228.96 
L 51.378125 7.2 
" style="fill: none; stroke: #262626; stroke-width: 0.8; stroke-linejoin: miter; stroke-linecap: square"/>
   </g>
   <g id="patch_4">
    <path d="M 386.178125 228.96 
L 386.178125 7.2 
" style="fill: none; stroke: #262626; stroke-width: 0.8; stroke-linejoin: miter; stroke-linecap: square"/>
   </g>
   <g id="patch_5">
    <path d="M 51.378125 228.96 
L 386.178125 228.96 
" style="fill: none; stroke: #262626; stroke-width: 0.8; stroke-linejoin: miter; stroke-linecap: square"/>
   </g>
   <g id="patch_6">
    <path d="M 51.378125 7.2 
L 386.178125 7.2 
" style="fill: none; stroke: #262626; stroke-width: 0.8; stroke-linejoin: miter; stroke-linecap: square"/>
   </g>
  </g>
 </g>
 <defs>
  <clipPath id="pde327b05cd">
   <rect x="51.378125" y="7.2" width="334.8" height="221.76"/>
  </clipPath>
 </defs>
</svg>
