<?xml version="1.0" encoding="utf-8" standalone="no"?>
<!DOCTYPE svg PUBLIC "-//W3C//DTD SVG 1.1//EN"
  "http://www.w3.org/Graphics/SVG/1.1/DTD/svg11.dtd">
<svg xmlns:xlink="http://www.w3.org/1999/xlink" width="281.778125pt" height="266.51625pt" viewBox="0 0 281.778125 266.51625" xmlns="http://www.w3.org/2000/svg" version="1.1">
 <metadata>
  <rdf:RDF xmlns:dc="http://purl.org/dc/elements/1.1/" xmlns:cc="http://creativecommons.org/ns#" xmlns:rdf="http://www.w3.org/1999/02/22-rdf-syntax-ns#">
   <cc:Work>
    <dc:type rdf:resource="http://purl.org/dc/dcmitype/StillImage"/>
    <dc:date>2024-06-06T14:26:17.058136</dc:date>
    <dc:format>image/svg+xml</dc:format>
    <dc:creator>
     <cc:Agent>
      <dc:title>Matplotlib v3.9.0, https://matplotlib.org/</dc:title>
     </cc:Agent>
    </dc:creator>
   </cc:Work>
  </rdf:RDF>
 </metadata>
 <defs>
  <style type="text/css">*{stroke-linejoin: round; stroke-linecap: butt}</style>
 </defs>
 <g id="figure_1">
  <g id="patch_1">
   <path d="M 0 266.51625 
L 281.778125 266.51625 
L 281.778125 0 
L 0 0 
z
" style="fill: #ffffff"/>
  </g>
  <g id="axes_1">
   <g id="patch_2">
    <path d="M 51.378125 228.96 
L 274.578125 228.96 
L 274.578125 7.2 
L 51.378125 7.2 
z
" style="fill: #ffffff"/>
   </g>
   <g id="matplotlib.axis_1">
    <g id="xtick_1">
     <g id="line2d_1">
      <defs>
       <path id="mf340c3cb21" d="M 0 0 
L 0 3.5 
" style="stroke: #262626; stroke-width: 0.8"/>
      </defs>
      <g>
       <use xlink:href="#mf340c3cb21" x="61.116948" y="228.96" style="fill: #262626; stroke: #262626; stroke-width: 0.8"/>
      </g>
     </g>
     <g id="text_1">
      <!-- 0 -->
      <g style="fill: #262626" transform="translate(57.935698 243.558437) scale(0.1 -0.1)">
       <defs>
        <path id="DejaVuSans-30" d="M 2034 4250 
Q 1547 4250 1301 3770 
Q 1056 3291 1056 2328 
Q 1056 1369 1301 889 
Q 1547 409 2034 409 
Q 2525 409 2770 889 
Q 3016 1369 3016 2328 
Q 3016 3291 2770 3770 
Q 2525 4250 2034 4250 
z
M 2034 4750 
Q 2819 4750 3233 4129 
Q 3647 3509 3647 2328 
Q 3647 1150 3233 529 
Q 2819 -91 2034 -91 
Q 1250 -91 836 529 
Q 422 1150 422 2328 
Q 422 3509 836 4129 
Q 1250 4750 2034 4750 
z
" transform="scale(0.015625)"/>
       </defs>
       <use xlink:href="#DejaVuSans-30"/>
      </g>
     </g>
    </g>
    <g id="xtick_2">
     <g id="line2d_2">
      <g>
       <use xlink:href="#mf340c3cb21" x="101.780093" y="228.96" style="fill: #262626; stroke: #262626; stroke-width: 0.8"/>
      </g>
     </g>
     <g id="text_2">
      <!-- 100 -->
      <g style="fill: #262626" transform="translate(92.236343 243.558437) scale(0.1 -0.1)">
       <defs>
        <path id="DejaVuSans-31" d="M 794 531 
L 1825 531 
L 1825 4091 
L 703 3866 
L 703 4441 
L 1819 4666 
L 2450 4666 
L 2450 531 
L 3481 531 
L 3481 0 
L 794 0 
L 794 531 
z
" transform="scale(0.015625)"/>
       </defs>
       <use xlink:href="#DejaVuSans-31"/>
       <use xlink:href="#DejaVuSans-30" x="63.623047"/>
       <use xlink:href="#DejaVuSans-30" x="127.246094"/>
      </g>
     </g>
    </g>
    <g id="xtick_3">
     <g id="line2d_3">
      <g>
       <use xlink:href="#mf340c3cb21" x="142.443237" y="228.96" style="fill: #262626; stroke: #262626; stroke-width: 0.8"/>
      </g>
     </g>
     <g id="text_3">
      <!-- 200 -->
      <g style="fill: #262626" transform="translate(132.899487 243.558437) scale(0.1 -0.1)">
       <defs>
        <path id="DejaVuSans-32" d="M 1228 531 
L 3431 531 
L 3431 0 
L 469 0 
L 469 531 
Q 828 903 1448 1529 
Q 2069 2156 2228 2338 
Q 2531 2678 2651 2914 
Q 2772 3150 2772 3378 
Q 2772 3750 2511 3984 
Q 2250 4219 1831 4219 
Q 1534 4219 1204 4116 
Q 875 4013 500 3803 
L 500 4441 
Q 881 4594 1212 4672 
Q 1544 4750 1819 4750 
Q 2544 4750 2975 4387 
Q 3406 4025 3406 3419 
Q 3406 3131 3298 2873 
Q 3191 2616 2906 2266 
Q 2828 2175 2409 1742 
Q 1991 1309 1228 531 
z
" transform="scale(0.015625)"/>
       </defs>
       <use xlink:href="#DejaVuSans-32"/>
       <use xlink:href="#DejaVuSans-30" x="63.623047"/>
       <use xlink:href="#DejaVuSans-30" x="127.246094"/>
      </g>
     </g>
    </g>
    <g id="xtick_4">
     <g id="line2d_4">
      <g>
       <use xlink:href="#mf340c3cb21" x="183.106382" y="228.96" style="fill: #262626; stroke: #262626; stroke-width: 0.8"/>
      </g>
     </g>
     <g id="text_4">
      <!-- 300 -->
      <g style="fill: #262626" transform="translate(173.562632 243.558437) scale(0.1 -0.1)">
       <defs>
        <path id="DejaVuSans-33" d="M 2597 2516 
Q 3050 2419 3304 2112 
Q 3559 1806 3559 1356 
Q 3559 666 3084 287 
Q 2609 -91 1734 -91 
Q 1441 -91 1130 -33 
Q 819 25 488 141 
L 488 750 
Q 750 597 1062 519 
Q 1375 441 1716 441 
Q 2309 441 2620 675 
Q 2931 909 2931 1356 
Q 2931 1769 2642 2001 
Q 2353 2234 1838 2234 
L 1294 2234 
L 1294 2753 
L 1863 2753 
Q 2328 2753 2575 2939 
Q 2822 3125 2822 3475 
Q 2822 3834 2567 4026 
Q 2313 4219 1838 4219 
Q 1578 4219 1281 4162 
Q 984 4106 628 3988 
L 628 4550 
Q 988 4650 1302 4700 
Q 1616 4750 1894 4750 
Q 2613 4750 3031 4423 
Q 3450 4097 3450 3541 
Q 3450 3153 3228 2886 
Q 3006 2619 2597 2516 
z
" transform="scale(0.015625)"/>
       </defs>
       <use xlink:href="#DejaVuSans-33"/>
       <use xlink:href="#DejaVuSans-30" x="63.623047"/>
       <use xlink:href="#DejaVuSans-30" x="127.246094"/>
      </g>
     </g>
    </g>
    <g id="xtick_5">
     <g id="line2d_5">
      <g>
       <use xlink:href="#mf340c3cb21" x="223.769526" y="228.96" style="fill: #262626; stroke: #262626; stroke-width: 0.8"/>
      </g>
     </g>
     <g id="text_5">
      <!-- 400 -->
      <g style="fill: #262626" transform="translate(214.225776 243.558437) scale(0.1 -0.1)">
       <defs>
        <path id="DejaVuSans-34" d="M 2419 4116 
L 825 1625 
L 2419 1625 
L 2419 4116 
z
M 2253 4666 
L 3047 4666 
L 3047 1625 
L 3713 1625 
L 3713 1100 
L 3047 1100 
L 3047 0 
L 2419 0 
L 2419 1100 
L 313 1100 
L 313 1709 
L 2253 4666 
z
" transform="scale(0.015625)"/>
       </defs>
       <use xlink:href="#DejaVuSans-34"/>
       <use xlink:href="#DejaVuSans-30" x="63.623047"/>
       <use xlink:href="#DejaVuSans-30" x="127.246094"/>
      </g>
     </g>
    </g>
    <g id="xtick_6">
     <g id="line2d_6">
      <g>
       <use xlink:href="#mf340c3cb21" x="264.43267" y="228.96" style="fill: #262626; stroke: #262626; stroke-width: 0.8"/>
      </g>
     </g>
     <g id="text_6">
      <!-- 500 -->
      <g style="fill: #262626" transform="translate(254.88892 243.558437) scale(0.1 -0.1)">
       <defs>
        <path id="DejaVuSans-35" d="M 691 4666 
L 3169 4666 
L 3169 4134 
L 1269 4134 
L 1269 2991 
Q 1406 3038 1543 3061 
Q 1681 3084 1819 3084 
Q 2600 3084 3056 2656 
Q 3513 2228 3513 1497 
Q 3513 744 3044 326 
Q 2575 -91 1722 -91 
Q 1428 -91 1123 -41 
Q 819 9 494 109 
L 494 744 
Q 775 591 1075 516 
Q 1375 441 1709 441 
Q 2250 441 2565 725 
Q 2881 1009 2881 1497 
Q 2881 1984 2565 2268 
Q 2250 2553 1709 2553 
Q 1456 2553 1204 2497 
Q 953 2441 691 2322 
L 691 4666 
z
" transform="scale(0.015625)"/>
       </defs>
       <use xlink:href="#DejaVuSans-35"/>
       <use xlink:href="#DejaVuSans-30" x="63.623047"/>
       <use xlink:href="#DejaVuSans-30" x="127.246094"/>
      </g>
     </g>
    </g>
    <g id="text_7">
     <!-- Epoch -->
     <g style="fill: #262626" transform="translate(147.667188 257.236562) scale(0.1 -0.1)">
      <defs>
       <path id="DejaVuSans-45" d="M 628 4666 
L 3578 4666 
L 3578 4134 
L 1259 4134 
L 1259 2753 
L 3481 2753 
L 3481 2222 
L 1259 2222 
L 1259 531 
L 3634 531 
L 3634 0 
L 628 0 
L 628 4666 
z
" transform="scale(0.015625)"/>
       <path id="DejaVuSans-70" d="M 1159 525 
L 1159 -1331 
L 581 -1331 
L 581 3500 
L 1159 3500 
L 1159 2969 
Q 1341 3281 1617 3432 
Q 1894 3584 2278 3584 
Q 2916 3584 3314 3078 
Q 3713 2572 3713 1747 
Q 3713 922 3314 415 
Q 2916 -91 2278 -91 
Q 1894 -91 1617 61 
Q 1341 213 1159 525 
z
M 3116 1747 
Q 3116 2381 2855 2742 
Q 2594 3103 2138 3103 
Q 1681 3103 1420 2742 
Q 1159 2381 1159 1747 
Q 1159 1113 1420 752 
Q 1681 391 2138 391 
Q 2594 391 2855 752 
Q 3116 1113 3116 1747 
z
" transform="scale(0.015625)"/>
       <path id="DejaVuSans-6f" d="M 1959 3097 
Q 1497 3097 1228 2736 
Q 959 2375 959 1747 
Q 959 1119 1226 758 
Q 1494 397 1959 397 
Q 2419 397 2687 759 
Q 2956 1122 2956 1747 
Q 2956 2369 2687 2733 
Q 2419 3097 1959 3097 
z
M 1959 3584 
Q 2709 3584 3137 3096 
Q 3566 2609 3566 1747 
Q 3566 888 3137 398 
Q 2709 -91 1959 -91 
Q 1206 -91 779 398 
Q 353 888 353 1747 
Q 353 2609 779 3096 
Q 1206 3584 1959 3584 
z
" transform="scale(0.015625)"/>
       <path id="DejaVuSans-63" d="M 3122 3366 
L 3122 2828 
Q 2878 2963 2633 3030 
Q 2388 3097 2138 3097 
Q 1578 3097 1268 2742 
Q 959 2388 959 1747 
Q 959 1106 1268 751 
Q 1578 397 2138 397 
Q 2388 397 2633 464 
Q 2878 531 3122 666 
L 3122 134 
Q 2881 22 2623 -34 
Q 2366 -91 2075 -91 
Q 1284 -91 818 406 
Q 353 903 353 1747 
Q 353 2603 823 3093 
Q 1294 3584 2113 3584 
Q 2378 3584 2631 3529 
Q 2884 3475 3122 3366 
z
" transform="scale(0.015625)"/>
       <path id="DejaVuSans-68" d="M 3513 2113 
L 3513 0 
L 2938 0 
L 2938 2094 
Q 2938 2591 2744 2837 
Q 2550 3084 2163 3084 
Q 1697 3084 1428 2787 
Q 1159 2491 1159 1978 
L 1159 0 
L 581 0 
L 581 4863 
L 1159 4863 
L 1159 2956 
Q 1366 3272 1645 3428 
Q 1925 3584 2291 3584 
Q 2894 3584 3203 3211 
Q 3513 2838 3513 2113 
z
" transform="scale(0.015625)"/>
      </defs>
      <use xlink:href="#DejaVuSans-45"/>
      <use xlink:href="#DejaVuSans-70" x="63.183594"/>
      <use xlink:href="#DejaVuSans-6f" x="126.660156"/>
      <use xlink:href="#DejaVuSans-63" x="187.841797"/>
      <use xlink:href="#DejaVuSans-68" x="242.822266"/>
     </g>
    </g>
   </g>
   <g id="matplotlib.axis_2">
    <g id="ytick_1">
     <g id="line2d_7">
      <defs>
       <path id="mb48f81aa77" d="M 0 0 
L -3.5 0 
" style="stroke: #262626; stroke-width: 0.8"/>
      </defs>
      <g>
       <use xlink:href="#mb48f81aa77" x="51.378125" y="218.415479" style="fill: #262626; stroke: #262626; stroke-width: 0.8"/>
      </g>
     </g>
     <g id="text_8">
      <!-- $\mathdefault{10^{-1}}$ -->
      <g style="fill: #262626" transform="translate(20.878125 222.214698) scale(0.1 -0.1)">
       <defs>
        <path id="DejaVuSans-2212" d="M 678 2272 
L 4684 2272 
L 4684 1741 
L 678 1741 
L 678 2272 
z
" transform="scale(0.015625)"/>
       </defs>
       <use xlink:href="#DejaVuSans-31" transform="translate(0 0.684375)"/>
       <use xlink:href="#DejaVuSans-30" transform="translate(63.623047 0.684375)"/>
       <use xlink:href="#DejaVuSans-2212" transform="translate(128.203125 38.965625) scale(0.7)"/>
       <use xlink:href="#DejaVuSans-31" transform="translate(186.855469 38.965625) scale(0.7)"/>
      </g>
     </g>
    </g>
    <g id="ytick_2">
     <g id="line2d_8">
      <g>
       <use xlink:href="#mb48f81aa77" x="51.378125" y="132.680415" style="fill: #262626; stroke: #262626; stroke-width: 0.8"/>
      </g>
     </g>
     <g id="text_9">
      <!-- $\mathdefault{10^{0}}$ -->
      <g style="fill: #262626" transform="translate(26.778125 136.479634) scale(0.1 -0.1)">
       <use xlink:href="#DejaVuSans-31" transform="translate(0 0.765625)"/>
       <use xlink:href="#DejaVuSans-30" transform="translate(63.623047 0.765625)"/>
       <use xlink:href="#DejaVuSans-30" transform="translate(128.203125 39.046875) scale(0.7)"/>
      </g>
     </g>
    </g>
    <g id="ytick_3">
     <g id="line2d_9">
      <g>
       <use xlink:href="#mb48f81aa77" x="51.378125" y="46.945351" style="fill: #262626; stroke: #262626; stroke-width: 0.8"/>
      </g>
     </g>
     <g id="text_10">
      <!-- $\mathdefault{10^{1}}$ -->
      <g style="fill: #262626" transform="translate(26.778125 50.74457) scale(0.1 -0.1)">
       <use xlink:href="#DejaVuSans-31" transform="translate(0 0.684375)"/>
       <use xlink:href="#DejaVuSans-30" transform="translate(63.623047 0.684375)"/>
       <use xlink:href="#DejaVuSans-31" transform="translate(128.203125 38.965625) scale(0.7)"/>
      </g>
     </g>
    </g>
    <g id="ytick_4">
     <g id="line2d_10">
      <defs>
       <path id="m0d9f066ca9" d="M 0 0 
L -2 0 
" style="stroke: #262626; stroke-width: 0.6"/>
      </defs>
      <g>
       <use xlink:href="#m0d9f066ca9" x="51.378125" y="226.724065" style="fill: #262626; stroke: #262626; stroke-width: 0.6"/>
      </g>
     </g>
    </g>
    <g id="ytick_5">
     <g id="line2d_11">
      <g>
       <use xlink:href="#m0d9f066ca9" x="51.378125" y="222.3385" style="fill: #262626; stroke: #262626; stroke-width: 0.6"/>
      </g>
     </g>
    </g>
    <g id="ytick_6">
     <g id="line2d_12">
      <g>
       <use xlink:href="#m0d9f066ca9" x="51.378125" y="192.606653" style="fill: #262626; stroke: #262626; stroke-width: 0.6"/>
      </g>
     </g>
    </g>
    <g id="ytick_7">
     <g id="line2d_13">
      <g>
       <use xlink:href="#m0d9f066ca9" x="51.378125" y="177.509458" style="fill: #262626; stroke: #262626; stroke-width: 0.6"/>
      </g>
     </g>
    </g>
    <g id="ytick_8">
     <g id="line2d_14">
      <g>
       <use xlink:href="#m0d9f066ca9" x="51.378125" y="166.797827" style="fill: #262626; stroke: #262626; stroke-width: 0.6"/>
      </g>
     </g>
    </g>
    <g id="ytick_9">
     <g id="line2d_15">
      <g>
       <use xlink:href="#m0d9f066ca9" x="51.378125" y="158.489241" style="fill: #262626; stroke: #262626; stroke-width: 0.6"/>
      </g>
     </g>
    </g>
    <g id="ytick_10">
     <g id="line2d_16">
      <g>
       <use xlink:href="#m0d9f066ca9" x="51.378125" y="151.700632" style="fill: #262626; stroke: #262626; stroke-width: 0.6"/>
      </g>
     </g>
    </g>
    <g id="ytick_11">
     <g id="line2d_17">
      <g>
       <use xlink:href="#m0d9f066ca9" x="51.378125" y="145.960944" style="fill: #262626; stroke: #262626; stroke-width: 0.6"/>
      </g>
     </g>
    </g>
    <g id="ytick_12">
     <g id="line2d_18">
      <g>
       <use xlink:href="#m0d9f066ca9" x="51.378125" y="140.989001" style="fill: #262626; stroke: #262626; stroke-width: 0.6"/>
      </g>
     </g>
    </g>
    <g id="ytick_13">
     <g id="line2d_19">
      <g>
       <use xlink:href="#m0d9f066ca9" x="51.378125" y="136.603436" style="fill: #262626; stroke: #262626; stroke-width: 0.6"/>
      </g>
     </g>
    </g>
    <g id="ytick_14">
     <g id="line2d_20">
      <g>
       <use xlink:href="#m0d9f066ca9" x="51.378125" y="106.871589" style="fill: #262626; stroke: #262626; stroke-width: 0.6"/>
      </g>
     </g>
    </g>
    <g id="ytick_15">
     <g id="line2d_21">
      <g>
       <use xlink:href="#m0d9f066ca9" x="51.378125" y="91.774394" style="fill: #262626; stroke: #262626; stroke-width: 0.6"/>
      </g>
     </g>
    </g>
    <g id="ytick_16">
     <g id="line2d_22">
      <g>
       <use xlink:href="#m0d9f066ca9" x="51.378125" y="81.062763" style="fill: #262626; stroke: #262626; stroke-width: 0.6"/>
      </g>
     </g>
    </g>
    <g id="ytick_17">
     <g id="line2d_23">
      <g>
       <use xlink:href="#m0d9f066ca9" x="51.378125" y="72.754177" style="fill: #262626; stroke: #262626; stroke-width: 0.6"/>
      </g>
     </g>
    </g>
    <g id="ytick_18">
     <g id="line2d_24">
      <g>
       <use xlink:href="#m0d9f066ca9" x="51.378125" y="65.965568" style="fill: #262626; stroke: #262626; stroke-width: 0.6"/>
      </g>
     </g>
    </g>
    <g id="ytick_19">
     <g id="line2d_25">
      <g>
       <use xlink:href="#m0d9f066ca9" x="51.378125" y="60.22588" style="fill: #262626; stroke: #262626; stroke-width: 0.6"/>
      </g>
     </g>
    </g>
    <g id="ytick_20">
     <g id="line2d_26">
      <g>
       <use xlink:href="#m0d9f066ca9" x="51.378125" y="55.253937" style="fill: #262626; stroke: #262626; stroke-width: 0.6"/>
      </g>
     </g>
    </g>
    <g id="ytick_21">
     <g id="line2d_27">
      <g>
       <use xlink:href="#m0d9f066ca9" x="51.378125" y="50.868372" style="fill: #262626; stroke: #262626; stroke-width: 0.6"/>
      </g>
     </g>
    </g>
    <g id="ytick_22">
     <g id="line2d_28">
      <g>
       <use xlink:href="#m0d9f066ca9" x="51.378125" y="21.136525" style="fill: #262626; stroke: #262626; stroke-width: 0.6"/>
      </g>
     </g>
    </g>
    <g id="text_11">
     <!-- Training Loss -->
     <g style="fill: #262626" transform="translate(14.798438 150.362031) rotate(-90) scale(0.1 -0.1)">
      <defs>
       <path id="DejaVuSans-54" d="M -19 4666 
L 3928 4666 
L 3928 4134 
L 2272 4134 
L 2272 0 
L 1638 0 
L 1638 4134 
L -19 4134 
L -19 4666 
z
" transform="scale(0.015625)"/>
       <path id="DejaVuSans-72" d="M 2631 2963 
Q 2534 3019 2420 3045 
Q 2306 3072 2169 3072 
Q 1681 3072 1420 2755 
Q 1159 2438 1159 1844 
L 1159 0 
L 581 0 
L 581 3500 
L 1159 3500 
L 1159 2956 
Q 1341 3275 1631 3429 
Q 1922 3584 2338 3584 
Q 2397 3584 2469 3576 
Q 2541 3569 2628 3553 
L 2631 2963 
z
" transform="scale(0.015625)"/>
       <path id="DejaVuSans-61" d="M 2194 1759 
Q 1497 1759 1228 1600 
Q 959 1441 959 1056 
Q 959 750 1161 570 
Q 1363 391 1709 391 
Q 2188 391 2477 730 
Q 2766 1069 2766 1631 
L 2766 1759 
L 2194 1759 
z
M 3341 1997 
L 3341 0 
L 2766 0 
L 2766 531 
Q 2569 213 2275 61 
Q 1981 -91 1556 -91 
Q 1019 -91 701 211 
Q 384 513 384 1019 
Q 384 1609 779 1909 
Q 1175 2209 1959 2209 
L 2766 2209 
L 2766 2266 
Q 2766 2663 2505 2880 
Q 2244 3097 1772 3097 
Q 1472 3097 1187 3025 
Q 903 2953 641 2809 
L 641 3341 
Q 956 3463 1253 3523 
Q 1550 3584 1831 3584 
Q 2591 3584 2966 3190 
Q 3341 2797 3341 1997 
z
" transform="scale(0.015625)"/>
       <path id="DejaVuSans-69" d="M 603 3500 
L 1178 3500 
L 1178 0 
L 603 0 
L 603 3500 
z
M 603 4863 
L 1178 4863 
L 1178 4134 
L 603 4134 
L 603 4863 
z
" transform="scale(0.015625)"/>
       <path id="DejaVuSans-6e" d="M 3513 2113 
L 3513 0 
L 2938 0 
L 2938 2094 
Q 2938 2591 2744 2837 
Q 2550 3084 2163 3084 
Q 1697 3084 1428 2787 
Q 1159 2491 1159 1978 
L 1159 0 
L 581 0 
L 581 3500 
L 1159 3500 
L 1159 2956 
Q 1366 3272 1645 3428 
Q 1925 3584 2291 3584 
Q 2894 3584 3203 3211 
Q 3513 2838 3513 2113 
z
" transform="scale(0.015625)"/>
       <path id="DejaVuSans-67" d="M 2906 1791 
Q 2906 2416 2648 2759 
Q 2391 3103 1925 3103 
Q 1463 3103 1205 2759 
Q 947 2416 947 1791 
Q 947 1169 1205 825 
Q 1463 481 1925 481 
Q 2391 481 2648 825 
Q 2906 1169 2906 1791 
z
M 3481 434 
Q 3481 -459 3084 -895 
Q 2688 -1331 1869 -1331 
Q 1566 -1331 1297 -1286 
Q 1028 -1241 775 -1147 
L 775 -588 
Q 1028 -725 1275 -790 
Q 1522 -856 1778 -856 
Q 2344 -856 2625 -561 
Q 2906 -266 2906 331 
L 2906 616 
Q 2728 306 2450 153 
Q 2172 0 1784 0 
Q 1141 0 747 490 
Q 353 981 353 1791 
Q 353 2603 747 3093 
Q 1141 3584 1784 3584 
Q 2172 3584 2450 3431 
Q 2728 3278 2906 2969 
L 2906 3500 
L 3481 3500 
L 3481 434 
z
" transform="scale(0.015625)"/>
       <path id="DejaVuSans-20" transform="scale(0.015625)"/>
       <path id="DejaVuSans-4c" d="M 628 4666 
L 1259 4666 
L 1259 531 
L 3531 531 
L 3531 0 
L 628 0 
L 628 4666 
z
" transform="scale(0.015625)"/>
       <path id="DejaVuSans-73" d="M 2834 3397 
L 2834 2853 
Q 2591 2978 2328 3040 
Q 2066 3103 1784 3103 
Q 1356 3103 1142 2972 
Q 928 2841 928 2578 
Q 928 2378 1081 2264 
Q 1234 2150 1697 2047 
L 1894 2003 
Q 2506 1872 2764 1633 
Q 3022 1394 3022 966 
Q 3022 478 2636 193 
Q 2250 -91 1575 -91 
Q 1294 -91 989 -36 
Q 684 19 347 128 
L 347 722 
Q 666 556 975 473 
Q 1284 391 1588 391 
Q 1994 391 2212 530 
Q 2431 669 2431 922 
Q 2431 1156 2273 1281 
Q 2116 1406 1581 1522 
L 1381 1569 
Q 847 1681 609 1914 
Q 372 2147 372 2553 
Q 372 3047 722 3315 
Q 1072 3584 1716 3584 
Q 2034 3584 2315 3537 
Q 2597 3491 2834 3397 
z
" transform="scale(0.015625)"/>
      </defs>
      <use xlink:href="#DejaVuSans-54"/>
      <use xlink:href="#DejaVuSans-72" x="46.333984"/>
      <use xlink:href="#DejaVuSans-61" x="87.447266"/>
      <use xlink:href="#DejaVuSans-69" x="148.726562"/>
      <use xlink:href="#DejaVuSans-6e" x="176.509766"/>
      <use xlink:href="#DejaVuSans-69" x="239.888672"/>
      <use xlink:href="#DejaVuSans-6e" x="267.671875"/>
      <use xlink:href="#DejaVuSans-67" x="331.050781"/>
      <use xlink:href="#DejaVuSans-20" x="394.527344"/>
      <use xlink:href="#DejaVuSans-4c" x="426.314453"/>
      <use xlink:href="#DejaVuSans-6f" x="480.277344"/>
      <use xlink:href="#DejaVuSans-73" x="541.458984"/>
      <use xlink:href="#DejaVuSans-73" x="593.558594"/>
     </g>
    </g>
   </g>
   <g id="PolyCollection_1"/>
   <g id="line2d_29">
    <path d="M 61.52358 17.28 
L 61.930211 54.049057 
L 62.336842 64.93204 
L 63.150105 75.89001 
L 63.556737 80.415141 
L 64.37 85.986901 
L 64.776631 87.868133 
L 65.183263 91.393801 
L 65.589894 91.533345 
L 65.996525 96.849877 
L 66.403157 97.003193 
L 67.21642 101.77225 
L 68.029683 100.49085 
L 68.436314 104.708851 
L 68.842946 106.779679 
L 69.249577 107.65626 
L 69.656208 106.955395 
L 70.06284 110.738758 
L 70.469471 112.372893 
L 70.876103 111.685385 
L 71.282734 112.444702 
L 71.689366 114.7682 
L 72.095997 114.216141 
L 72.502629 112.792078 
L 72.90926 116.14157 
L 73.315891 114.94237 
L 73.722523 116.966392 
L 74.129154 118.229187 
L 74.535786 117.713742 
L 74.942417 117.909824 
L 75.349049 119.546921 
L 75.75568 121.723845 
L 76.162312 120.967168 
L 76.568943 122.419907 
L 77.382206 121.293361 
L 77.788837 123.210568 
L 78.195469 123.418677 
L 78.6021 124.196217 
L 79.008732 122.606305 
L 79.415363 125.431135 
L 79.821995 125.463647 
L 80.228626 126.495423 
L 80.635257 125.453329 
L 81.041889 126.668767 
L 81.44852 128.51578 
L 81.855152 127.413084 
L 82.668415 128.568381 
L 83.075046 128.967815 
L 83.481678 129.588218 
L 83.888309 129.984061 
L 84.29494 130.119726 
L 84.701572 131.262969 
L 85.108203 130.681696 
L 85.514835 132.481433 
L 85.921466 130.510774 
L 86.328098 132.321616 
L 86.734729 132.513338 
L 87.141361 132.00877 
L 87.547992 132.97816 
L 87.954623 133.255239 
L 88.361255 133.025495 
L 88.767886 133.363126 
L 89.174518 133.113105 
L 89.581149 135.189551 
L 89.987781 135.186697 
L 90.394412 136.530232 
L 90.801044 135.390068 
L 91.207675 136.274248 
L 91.614306 136.651855 
L 92.020938 136.506179 
L 92.427569 136.876628 
L 92.834201 136.666035 
L 93.240832 137.234869 
L 93.647464 136.125723 
L 94.054095 137.925007 
L 94.460727 137.010971 
L 94.867358 137.645685 
L 95.273989 138.67612 
L 95.680621 138.3798 
L 96.087252 138.672186 
L 96.493884 139.19211 
L 96.900515 137.570863 
L 97.307147 138.829796 
L 97.713778 140.575137 
L 98.12041 139.275944 
L 98.527041 140.400625 
L 98.933672 141.866815 
L 99.340304 140.913156 
L 99.746935 141.068882 
L 100.96683 142.797934 
L 101.373461 141.361524 
L 101.780093 140.656009 
L 102.186724 141.327353 
L 102.593355 141.512114 
L 102.999987 142.387452 
L 103.406618 142.810797 
L 103.81325 143.522301 
L 104.219881 143.895893 
L 104.626513 142.353356 
L 105.033144 142.982504 
L 105.439776 143.086722 
L 105.846407 144.354295 
L 106.253038 143.495961 
L 106.65967 145.289239 
L 107.066301 144.537805 
L 107.472933 145.799544 
L 107.879564 144.866035 
L 108.286196 145.554749 
L 108.692827 143.904954 
L 109.099459 145.401704 
L 109.50609 145.79727 
L 109.912721 145.459997 
L 110.319353 145.285897 
L 110.725984 146.574712 
L 111.539247 146.242515 
L 111.945879 147.085843 
L 112.35251 145.753594 
L 113.165773 146.148077 
L 113.572404 166.199976 
L 113.979036 166.562527 
L 114.385667 167.314216 
L 114.792299 167.81719 
L 115.19893 167.783187 
L 116.012193 167.48617 
L 116.418825 167.521695 
L 116.825456 168.607136 
L 117.638719 168.193534 
L 118.04535 168.486503 
L 118.451982 168.196236 
L 118.858613 168.86459 
L 119.671876 169.312419 
L 120.078508 169.185204 
L 120.485139 169.738511 
L 121.298402 168.384516 
L 121.705033 168.821597 
L 122.111665 169.969066 
L 122.518296 168.792662 
L 122.924928 169.13329 
L 123.331559 170.225695 
L 123.738191 170.225544 
L 124.144822 170.098424 
L 124.551453 170.770786 
L 124.958085 169.58862 
L 125.364716 170.219302 
L 125.771348 169.297573 
L 126.177979 170.177799 
L 126.584611 169.672034 
L 126.991242 170.609165 
L 127.397874 170.439525 
L 127.804505 170.938249 
L 128.211136 169.757835 
L 128.617768 169.737312 
L 129.024399 170.581418 
L 129.837662 170.752083 
L 130.244294 171.06935 
L 130.650925 171.125925 
L 131.057557 170.805664 
L 131.464188 170.325667 
L 131.870819 171.241782 
L 132.277451 171.085558 
L 132.684082 170.698154 
L 133.090714 171.110136 
L 133.497345 171.355624 
L 133.903977 171.169857 
L 134.310608 171.635705 
L 134.71724 170.589431 
L 135.123871 171.954889 
L 135.530502 171.614984 
L 135.937134 171.109181 
L 136.750397 172.130477 
L 137.157028 171.883644 
L 137.56366 171.939577 
L 137.970291 171.438653 
L 138.376923 171.711365 
L 138.783554 171.773792 
L 139.190185 172.908813 
L 140.003448 171.797697 
L 140.41008 172.040745 
L 140.816711 171.937085 
L 141.223343 172.368419 
L 141.629974 172.470724 
L 142.036606 171.659926 
L 142.443237 172.139276 
L 142.849868 172.432688 
L 143.2565 172.21632 
L 143.663131 171.688305 
L 144.069763 174.137053 
L 144.476394 172.665044 
L 144.883026 172.720787 
L 145.289657 172.518744 
L 146.509551 173.192383 
L 146.916183 173.079545 
L 147.729446 172.146706 
L 148.136077 173.158902 
L 148.542709 172.666132 
L 148.94934 173.072848 
L 149.355972 173.789674 
L 149.762603 172.714214 
L 150.169234 172.954112 
L 150.575866 172.900902 
L 150.982497 173.3545 
L 151.389129 173.417943 
L 151.79576 172.860899 
L 152.202392 173.522961 
L 152.609023 173.705653 
L 153.015655 172.732699 
L 153.422286 174.114485 
L 153.828917 173.106128 
L 154.235549 173.611772 
L 154.64218 173.631627 
L 155.048812 172.992037 
L 155.455443 173.595233 
L 155.862075 173.420304 
L 156.268706 174.733333 
L 156.675338 174.736114 
L 157.081969 173.617792 
L 157.895232 174.461095 
L 158.301863 173.692796 
L 159.115126 174.519566 
L 159.521758 173.679185 
L 159.928389 174.409456 
L 160.335021 173.915776 
L 161.148283 174.388085 
L 161.554915 188.967741 
L 161.961546 190.19573 
L 162.368178 189.933934 
L 162.774809 191.007543 
L 163.181441 190.690358 
L 163.588072 190.894428 
L 163.994704 190.902052 
L 164.401335 190.683332 
L 164.807967 191.101315 
L 165.214598 190.518114 
L 166.027861 191.252164 
L 166.434492 191.402009 
L 166.841124 191.321977 
L 167.654387 191.451932 
L 168.061018 191.106439 
L 168.46765 191.473471 
L 168.874281 191.379611 
L 169.687544 191.978184 
L 170.094175 191.885367 
L 170.500807 191.517293 
L 170.907438 191.473676 
L 171.720701 191.61136 
L 172.127333 192.32727 
L 172.533964 191.898179 
L 172.940595 192.125327 
L 173.347227 191.888656 
L 173.753858 192.108442 
L 174.16049 191.658799 
L 174.567121 191.891079 
L 174.973753 192.867847 
L 175.380384 201.748128 
L 176.193647 202.380792 
L 176.600278 202.560597 
L 177.00691 202.546512 
L 177.413541 202.679683 
L 177.820173 202.588347 
L 178.226804 202.773563 
L 179.040067 202.824204 
L 183.106382 203.456107 
L 183.513013 203.421758 
L 183.919644 203.524705 
L 184.732907 203.558653 
L 185.139539 203.646307 
L 185.54617 203.51893 
L 185.952802 203.808369 
L 186.359433 203.747203 
L 186.766065 203.806432 
L 187.172696 203.720035 
L 188.39259 203.983482 
L 189.205853 203.90874 
L 189.612485 204.084464 
L 190.425748 204.08215 
L 190.832379 204.268107 
L 191.23901 204.075045 
L 191.645642 204.270062 
L 192.458905 204.434846 
L 192.865536 204.258219 
L 193.678799 204.396945 
L 195.305325 204.490562 
L 195.711956 204.408179 
L 196.118588 204.560429 
L 196.525219 204.933609 
L 196.931851 204.745231 
L 198.151745 204.80204 
L 198.558376 204.731811 
L 198.965008 204.878716 
L 199.371639 204.650832 
L 199.778271 204.910778 
L 200.998165 204.988977 
L 201.404797 205.261266 
L 201.811428 204.76389 
L 202.218059 205.161221 
L 202.624691 205.151603 
L 203.437954 205.308397 
L 203.844585 205.146034 
L 204.251217 205.398144 
L 204.657848 205.51778 
L 205.06448 205.289677 
L 205.471111 205.405339 
L 206.691005 205.455699 
L 207.097637 205.545957 
L 207.504268 205.357529 
L 207.9109 205.508051 
L 208.317531 205.324191 
L 208.724163 205.726758 
L 209.130794 205.673269 
L 209.537425 205.475701 
L 209.944057 205.601646 
L 210.350688 205.443089 
L 210.75732 205.850597 
L 211.570583 205.717747 
L 211.977214 206.044293 
L 212.790477 205.79606 
L 213.197108 205.759488 
L 214.417003 205.948097 
L 214.823634 205.908331 
L 215.230266 206.003755 
L 215.636897 205.883555 
L 216.45016 205.921252 
L 216.856791 206.232865 
L 217.263423 206.028959 
L 217.670054 206.248202 
L 218.076686 205.973289 
L 218.483317 206.210041 
L 218.889949 206.290882 
L 219.29658 206.174238 
L 219.703212 206.253495 
L 220.109843 206.177549 
L 220.516474 206.431286 
L 220.923106 206.447533 
L 221.329737 206.312376 
L 221.736369 206.403462 
L 222.549632 206.312068 
L 222.956263 206.638863 
L 223.362895 206.704182 
L 223.769526 206.526497 
L 224.176157 206.676345 
L 224.582789 206.572421 
L 224.98942 206.856522 
L 225.396052 206.562176 
L 226.209315 206.638418 
L 226.615946 206.597575 
L 227.022578 206.838466 
L 227.429209 206.61982 
L 227.83584 206.797957 
L 228.242472 206.57174 
L 228.649103 206.831657 
L 231.088892 207.091931 
L 231.495523 213.056469 
L 231.902155 213.368939 
L 232.715418 213.598634 
L 233.122049 213.673337 
L 233.528681 213.620317 
L 234.748575 213.895288 
L 235.155206 213.757989 
L 235.561838 213.948576 
L 236.781732 213.927814 
L 238.814889 214.142364 
L 239.221521 214.105858 
L 239.628152 214.207064 
L 240.034784 214.078744 
L 240.848047 214.219815 
L 241.254678 214.288064 
L 242.067941 214.279126 
L 242.474572 214.389274 
L 242.881204 214.276407 
L 243.287835 214.443079 
L 243.694467 214.439331 
L 244.101098 214.283568 
L 244.50773 214.522654 
L 244.914361 214.547798 
L 245.320993 214.364137 
L 245.727624 214.547742 
L 246.134255 214.417213 
L 246.947518 214.627653 
L 247.35415 214.567428 
L 248.980676 214.686718 
L 249.793938 214.731817 
L 250.20057 214.855932 
L 250.607201 214.645528 
L 251.013833 214.798538 
L 251.420464 214.758157 
L 251.827096 214.873012 
L 252.233727 214.801416 
L 253.04699 214.905344 
L 254.673516 214.918659 
L 255.080147 215.040212 
L 255.486779 214.926744 
L 255.89341 215.097416 
L 258.333199 215.135004 
L 259.959725 215.247459 
L 260.366356 218.36245 
L 261.179619 218.66294 
L 264.43267 218.88 
L 264.43267 218.88 
" clip-path="url(#p9e58d322f9)" style="fill: none; stroke: #1f77b4; stroke-width: 1.5; stroke-linecap: round"/>
   </g>
   <g id="patch_3">
    <path d="M 51.378125 228.96 
L 51.378125 7.2 
" style="fill: none; stroke: #262626; stroke-width: 0.8; stroke-linejoin: miter; stroke-linecap: square"/>
   </g>
   <g id="patch_4">
    <path d="M 274.578125 228.96 
L 274.578125 7.2 
" style="fill: none; stroke: #262626; stroke-width: 0.8; stroke-linejoin: miter; stroke-linecap: square"/>
   </g>
   <g id="patch_5">
    <path d="M 51.378125 228.96 
L 274.578125 228.96 
" style="fill: none; stroke: #262626; stroke-width: 0.8; stroke-linejoin: miter; stroke-linecap: square"/>
   </g>
   <g id="patch_6">
    <path d="M 51.378125 7.2 
L 274.578125 7.2 
" style="fill: none; stroke: #262626; stroke-width: 0.8; stroke-linejoin: miter; stroke-linecap: square"/>
   </g>
  </g>
 </g>
 <defs>
  <clipPath id="p9e58d322f9">
   <rect x="51.378125" y="7.2" width="223.2" height="221.76"/>
  </clipPath>
 </defs>
</svg>
